<svg width="33" height="32" viewBox="0 0 33 32" fill="none" xmlns="http://www.w3.org/2000/svg">
<path d="M23.9163 14.8142C23.9163 14.7147 23.8349 14.6334 23.7355 14.6334H22.3795C22.28 14.6334 22.1987 14.7147 22.1987 14.8142C22.1987 17.985 19.629 20.5547 16.4581 20.5547C13.2873 20.5547 10.7176 17.985 10.7176 14.8142C10.7176 14.7147 10.6363 14.6334 10.5368 14.6334H9.1808C9.08136 14.6334 9 14.7147 9 14.8142C9 18.6269 11.8612 21.7729 15.5541 22.2181V24.5324H12.2703C11.9607 24.5324 11.7121 24.8556 11.7121 25.2556V26.0692C11.7121 26.1686 11.7753 26.25 11.8522 26.25H21.0641C21.141 26.25 21.2042 26.1686 21.2042 26.0692V25.2556C21.2042 24.8556 20.9556 24.5324 20.646 24.5324H17.2718V22.2294C21.0076 21.8226 23.9163 18.6585 23.9163 14.8142ZM16.4581 18.6562C18.5803 18.6562 20.3002 16.9567 20.3002 14.8594V9.79688C20.3002 7.69955 18.5803 6 16.4581 6C14.336 6 12.6161 7.69955 12.6161 9.79688V14.8594C12.6161 16.9567 14.336 18.6562 16.4581 18.6562ZM14.3337 9.79688C14.3337 8.65329 15.2807 7.71763 16.4581 7.71763C17.6356 7.71763 18.5826 8.65329 18.5826 9.79688V14.8594C18.5826 16.003 17.6356 16.9386 16.4581 16.9386C15.2807 16.9386 14.3337 16.003 14.3337 14.8594V9.79688Z" fill="white"/>
</svg>
